<svg width="150" height="60" viewBox="0 0 150 60" fill="none" xmlns="http://www.w3.org/2000/svg">
<rect width="150" height="60" fill="white"/>
<path fill-rule="evenodd" clip-rule="evenodd" d="M20.0002 24.3966C20.0002 29.1756 20.0002 31.2763 20.0002 36.0566C20.0002 37.2963 20.6639 38.5126 21.761 39.1434L31.8522 44.97C32.9382 45.6131 34.3191 45.6131 35.4038 44.97L45.4951 39.1434C46.5921 38.5126 47.2558 37.2949 47.2558 36.0566C47.2558 31.2763 47.2558 29.1769 47.2558 24.3966C47.2558 23.1474 46.5811 21.9338 45.4951 21.3099L35.4052 15.4833C34.3191 14.8402 32.9382 14.8402 31.8536 15.4833L21.761 21.3099C20.6749 21.9338 20.0002 23.1474 20.0002 24.3966Z" fill="#6639E4"/>
<path opacity="0.55" fill-rule="evenodd" clip-rule="evenodd" d="M20.6445 22.3418C20.9325 21.9249 21.3096 21.567 21.7594 21.3079L31.852 15.4827C32.395 15.1604 33.0121 15 33.6278 15C34.2449 15 34.8606 15.1604 35.4036 15.4827L45.4949 21.3093C45.9446 21.5685 46.3217 21.9249 46.6097 22.3432C46.1585 22.9959 45.4126 23.4594 44.7736 23.8255C41.6511 25.6274 38.5178 27.4046 35.4022 29.2037C34.8592 29.5246 34.2421 29.6864 33.6264 29.6864C33.0093 29.6864 32.3937 29.526 31.8506 29.2037C28.7378 27.4032 25.6044 25.6261 22.482 23.8242C21.8417 23.4581 21.0957 22.9946 20.6445 22.3418Z" fill="white"/>
<path opacity="0.2" fill-rule="evenodd" clip-rule="evenodd" d="M31.852 29.2023C28.7378 27.4032 25.6044 25.626 22.482 23.8241C21.8416 23.458 21.0957 22.9945 20.6445 22.3418C20.2235 22.9685 20.0069 23.639 20 24.396C20 29.1749 20 31.2756 20 36.0559C20.0069 36.8102 20.2235 37.4848 20.6445 38.1088C21.0957 37.4574 21.8416 36.9926 22.4806 36.6264C25.603 34.8246 28.7364 33.0474 31.852 31.2483C32.3881 30.9315 32.9956 30.7697 33.6045 30.7656C34.2284 30.7614 34.8551 30.9219 35.4049 31.2483C38.5205 33.0474 41.6539 34.8246 44.7763 36.6264C45.4153 36.9926 46.1626 37.4561 46.6124 38.1088C47.043 37.4698 47.25 36.7978 47.2569 36.0559C47.2569 31.2756 47.2569 29.1762 47.2569 24.396C47.25 23.6541 47.0417 22.9795 46.6124 22.3432C46.1613 22.9945 45.4153 23.4594 44.7763 23.8255C41.6539 25.6274 38.5205 27.4046 35.4049 29.2037C34.866 29.5232 34.2531 29.6836 33.6401 29.6864C33.0203 29.6864 32.3991 29.5259 31.852 29.2023Z" fill="white"/>
<path opacity="0.3" fill-rule="evenodd" clip-rule="evenodd" d="M26.301 33.3601C26.301 30.7903 26.301 29.6604 26.301 27.0906C26.3079 26.416 26.6521 25.7728 27.2472 25.4314L32.6733 22.298C33.2575 21.9524 33.9994 21.9524 34.5835 22.298L40.0097 25.4314C40.6062 25.7742 40.949 26.416 40.9559 27.0906C40.9559 29.6604 40.9559 30.7903 40.9559 33.3601C40.949 34.0361 40.6021 34.6793 40.0097 35.0193L34.5835 38.1528C33.9994 38.4983 33.2575 38.4983 32.6733 38.1528L27.2472 35.0207C26.6548 34.6793 26.3079 34.0375 26.301 33.3601Z" fill="white"/>
<path d="M57.5648 28.7809H56.1939V34.985H54.1871V28.7809H53.2968V27.1557H54.1871V26.76C54.1871 25.799 54.4603 25.0924 55.0068 24.6402C55.5532 24.1879 56.3776 23.9759 57.48 24.0042V25.6718C56.9995 25.6624 56.665 25.7425 56.4766 25.9121C56.2881 26.0817 56.1939 26.3879 56.1939 26.8307V27.1557H57.5648V28.7809ZM66.2382 27.1557V34.985H64.2455V33.9958C63.9911 34.335 63.6567 34.6035 63.2421 34.8013C62.837 34.9898 62.3942 35.084 61.9137 35.084C61.3013 35.084 60.7595 34.9568 60.2884 34.7024C59.8174 34.4386 59.4452 34.057 59.172 33.5577C58.9082 33.0489 58.7763 32.4459 58.7763 31.7487V27.1557H60.7548V31.4661C60.7548 32.0879 60.9103 32.5684 61.2212 32.9076C61.5321 33.2373 61.9561 33.4022 62.4931 33.4022C63.0395 33.4022 63.4682 33.2373 63.7791 32.9076C64.09 32.5684 64.2455 32.0879 64.2455 31.4661V27.1557H66.2382ZM72.5289 27.0427C73.4617 27.0427 74.2154 27.3394 74.7901 27.933C75.3648 28.5171 75.6522 29.3368 75.6522 30.392V34.985H73.6737V30.6605C73.6737 30.0387 73.5182 29.5629 73.2073 29.2332C72.8964 28.894 72.4724 28.7244 71.9354 28.7244C71.3889 28.7244 70.9555 28.894 70.6352 29.2332C70.3243 29.5629 70.1688 30.0387 70.1688 30.6605V34.985H68.1903V27.1557H70.1688V28.1308C70.4326 27.7917 70.7671 27.5279 71.1722 27.3394C71.5868 27.1416 72.039 27.0427 72.5289 27.0427ZM77.0249 31.0421C77.0249 30.2507 77.1804 29.5488 77.4913 28.9364C77.8116 28.324 78.245 27.8529 78.7915 27.5232C79.3379 27.1934 79.9456 27.0285 80.6145 27.0285C81.1233 27.0285 81.6085 27.1416 82.0702 27.3677C82.5318 27.5844 82.8993 27.8765 83.1725 28.2439V24.5271H85.1793V34.985H83.1725V33.8262C82.9275 34.2125 82.5836 34.5234 82.1408 34.7589C81.698 34.9945 81.1845 35.1122 80.6004 35.1122C79.9409 35.1122 79.3379 34.9426 78.7915 34.6035C78.245 34.2643 77.8116 33.7885 77.4913 33.1761C77.1804 32.5543 77.0249 31.843 77.0249 31.0421ZM83.1866 31.0704C83.1866 30.5899 83.0924 30.18 82.904 29.8409C82.7155 29.4923 82.4612 29.2285 82.1408 29.0495C81.8205 28.861 81.4766 28.7668 81.1092 28.7668C80.7417 28.7668 80.4025 28.8563 80.0916 29.0353C79.7807 29.2143 79.5263 29.4781 79.3285 29.8267C79.1401 30.1659 79.0458 30.571 79.0458 31.0421C79.0458 31.5132 79.1401 31.9277 79.3285 32.2858C79.5263 32.6344 79.7807 32.9029 80.0916 33.0913C80.412 33.2797 80.7511 33.374 81.1092 33.374C81.4766 33.374 81.8205 33.2845 82.1408 33.1054C82.4612 32.917 82.7155 32.6532 82.904 32.314C83.0924 31.9654 83.1866 31.5509 83.1866 31.0704ZM88.1151 26.223C87.7665 26.223 87.4744 26.1146 87.2389 25.8979C87.0127 25.6718 86.8997 25.3939 86.8997 25.0641C86.8997 24.7344 87.0127 24.4611 87.2389 24.2444C87.4744 24.0183 87.7665 23.9053 88.1151 23.9053C88.4637 23.9053 88.751 24.0183 88.9771 24.2444C89.2127 24.4611 89.3304 24.7344 89.3304 25.0641C89.3304 25.3939 89.2127 25.6718 88.9771 25.8979C88.751 26.1146 88.4637 26.223 88.1151 26.223ZM89.0902 27.1557V34.985H87.1117V27.1557H89.0902ZM95.3836 27.0427C96.3164 27.0427 97.0701 27.3394 97.6448 27.933C98.2195 28.5171 98.5069 29.3368 98.5069 30.392V34.985H96.5283V30.6605C96.5283 30.0387 96.3729 29.5629 96.062 29.2332C95.7511 28.894 95.3271 28.7244 94.7901 28.7244C94.2436 28.7244 93.8102 28.894 93.4899 29.2332C93.179 29.5629 93.0235 30.0387 93.0235 30.6605V34.985H91.045V27.1557H93.0235V28.1308C93.2873 27.7917 93.6218 27.5279 94.0269 27.3394C94.4415 27.1416 94.8937 27.0427 95.3836 27.0427ZM103.455 27.0285C104.039 27.0285 104.553 27.1463 104.996 27.3818C105.438 27.608 105.787 27.9047 106.041 28.2722V27.1557H108.034V35.0416C108.034 35.767 107.888 36.4124 107.596 36.9777C107.304 37.5524 106.866 38.0047 106.282 38.3344C105.697 38.6736 104.991 38.8432 104.162 38.8432C103.05 38.8432 102.136 38.5841 101.42 38.0659C100.713 37.5477 100.313 36.8411 100.219 35.946H102.183C102.287 36.3041 102.508 36.5867 102.847 36.794C103.196 37.0107 103.615 37.119 104.105 37.119C104.68 37.119 105.146 36.9447 105.504 36.5961C105.862 36.257 106.041 35.7388 106.041 35.0416V33.8262C105.787 34.1936 105.434 34.4998 104.981 34.7448C104.539 34.9898 104.03 35.1122 103.455 35.1122C102.796 35.1122 102.193 34.9426 101.646 34.6035C101.1 34.2643 100.666 33.7885 100.346 33.1761C100.035 32.5543 99.8796 31.843 99.8796 31.0421C99.8796 30.2507 100.035 29.5488 100.346 28.9364C100.666 28.324 101.095 27.8529 101.632 27.5232C102.178 27.1934 102.786 27.0285 103.455 27.0285ZM106.041 31.0704C106.041 30.5899 105.947 30.18 105.759 29.8409C105.57 29.4923 105.316 29.2285 104.996 29.0495C104.675 28.861 104.331 28.7668 103.964 28.7668C103.596 28.7668 103.257 28.8563 102.946 29.0353C102.635 29.2143 102.381 29.4781 102.183 29.8267C101.995 30.1659 101.901 30.571 101.901 31.0421C101.901 31.5132 101.995 31.9277 102.183 32.2858C102.381 32.6344 102.635 32.9029 102.946 33.0913C103.267 33.2797 103.606 33.374 103.964 33.374C104.331 33.374 104.675 33.2845 104.996 33.1054C105.316 32.917 105.57 32.6532 105.759 32.314C105.947 31.9654 106.041 31.5509 106.041 31.0704ZM112.962 35.1122C112.322 35.1122 111.747 34.9992 111.238 34.7731C110.729 34.5375 110.324 34.2219 110.023 33.8262C109.731 33.4305 109.571 32.9924 109.542 32.5119H111.535C111.573 32.8134 111.719 33.063 111.973 33.2609C112.237 33.4588 112.562 33.5577 112.948 33.5577C113.325 33.5577 113.617 33.4823 113.824 33.3316C114.041 33.1808 114.15 32.9877 114.15 32.7521C114.15 32.4978 114.018 32.3093 113.754 32.1868C113.499 32.0549 113.09 31.9136 112.524 31.7629C111.94 31.6215 111.46 31.4755 111.083 31.3248C110.715 31.174 110.395 30.9432 110.122 30.6323C109.858 30.3214 109.726 29.9021 109.726 29.3745C109.726 28.9411 109.849 28.5454 110.094 28.1874C110.348 27.8294 110.706 27.5467 111.168 27.3394C111.639 27.1322 112.19 27.0285 112.821 27.0285C113.754 27.0285 114.498 27.2641 115.054 27.7351C115.61 28.1968 115.916 28.8233 115.973 29.6147H114.079C114.051 29.3038 113.919 29.0589 113.683 28.8799C113.457 28.6914 113.151 28.5972 112.765 28.5972C112.407 28.5972 112.129 28.6632 111.931 28.7951C111.742 28.927 111.648 29.1107 111.648 29.3462C111.648 29.61 111.78 29.8126 112.044 29.9539C112.308 30.0858 112.717 30.2224 113.273 30.3638C113.839 30.5051 114.305 30.6511 114.672 30.8019C115.04 30.9526 115.355 31.1882 115.619 31.5085C115.893 31.8194 116.034 32.2339 116.043 32.7521C116.043 33.2044 115.916 33.6095 115.662 33.9675C115.417 34.3255 115.059 34.6082 114.588 34.8155C114.126 35.0133 113.584 35.1122 112.962 35.1122ZM117.356 32.9783V31.4237L121.978 24.8097H124.281V31.2541H125.525V32.9783H124.281V34.985H122.303V32.9783H117.356ZM122.43 26.9296L119.533 31.2541H122.43V26.9296ZM134.402 27.1557V34.985H132.409V33.9958C132.155 34.335 131.82 34.6035 131.406 34.8013C131.001 34.9898 130.558 35.084 130.077 35.084C129.465 35.084 128.923 34.9568 128.452 34.7024C127.981 34.4386 127.609 34.057 127.336 33.5577C127.072 33.0489 126.94 32.4459 126.94 31.7487V27.1557H128.919V31.4661C128.919 32.0879 129.074 32.5684 129.385 32.9076C129.696 33.2373 130.12 33.4022 130.657 33.4022C131.203 33.4022 131.632 33.2373 131.943 32.9076C132.254 32.5684 132.409 32.0879 132.409 31.4661V27.1557H134.402Z" fill="black"/>
</svg>
