<svg width="150" height="60" viewBox="0 0 150 60" fill="none" xmlns="http://www.w3.org/2000/svg">
<rect width="150" height="60" fill="white"/>
<mask id="mask0_51_137" style="mask-type:luminance" maskUnits="userSpaceOnUse" x="21" y="19" width="39" height="23">
<path d="M21 19H59.2004V42H21V19Z" fill="white"/>
</mask>
<g mask="url(#mask0_51_137)">
<path d="M43.3483 41.9664C43.2138 41.9094 40.0388 40.5316 38.9712 37.7817C38.4453 36.4291 38.5284 34.9813 39.2159 33.4793C39.5456 32.76 40.5572 30.2754 39.739 28.509C39.3588 27.6879 38.6218 27.1181 37.5476 26.8136C37.4691 26.7922 37.4084 26.7314 37.3851 26.6539C37.3617 26.5764 37.3804 26.4923 37.4337 26.4316C37.4579 26.4026 38.053 25.7301 39.2094 25.392C41.114 24.8334 43.0372 25.6189 44.3141 26.3756C44.9316 26.7408 45.4855 27.0266 45.9861 27.2442C46.2337 26.4643 46.2075 25.7703 45.9058 25.1762C45.1726 23.734 43.0522 23.2968 43.0251 23.2912C42.9831 23.2819 38.8264 22.3842 35.119 24.8838C34.9182 25.0193 34.7043 25.165 34.4801 25.3182C32.7305 26.5129 30.3346 28.1484 27.9106 29.0134C24.9851 30.0577 22.691 29.7074 21.0909 27.971C21.0021 27.8748 21.0087 27.7253 21.1049 27.6375C21.2011 27.5488 21.3515 27.5553 21.4402 27.6515C22.9189 29.2563 24.9832 29.5561 27.75 28.5678C30.117 27.7234 32.483 26.1075 34.212 24.9277C34.4371 24.7736 34.6519 24.6279 34.8537 24.4915C38.7292 21.8789 42.9513 22.7896 43.1232 22.8279C43.1475 22.8326 43.7201 22.9475 44.3982 23.2632C45.3108 23.6863 45.9777 24.2729 46.328 24.9604C46.6942 25.6806 46.7269 26.5063 46.428 27.4236C46.9791 27.631 47.4629 27.7477 47.8973 27.7944C48.0682 27.46 48.2634 27.1396 48.5091 26.8547C49.4964 25.7133 50.9508 26.1355 51.5813 26.5175C51.6495 26.5586 51.6915 26.6306 51.6953 26.71C51.699 26.7884 51.6626 26.8641 51.5991 26.9108C50.6145 27.631 49.7047 28.297 48.3447 28.297C48.2915 28.297 48.2373 28.296 48.1831 28.2932C48.0916 28.4913 48.0056 28.6921 47.9206 28.891C47.5741 29.7037 47.2182 30.5388 46.5092 31.0516C46.8651 31.0777 47.42 30.9741 48.1467 30.4052C48.2905 30.2501 49.3554 29.1414 50.6463 29.0956C51.7663 29.0564 53.2412 28.4053 54.4032 27.4367C55.3401 26.6548 56.2648 27.0808 56.6226 27.4152C56.6273 27.4199 56.631 27.4236 56.6357 27.4283C57.5128 28.3792 58.2563 28.2241 58.6019 28.0644C58.346 27.744 57.8817 27.0957 57.5782 26.2747C57.3997 25.7936 56.8514 25.4078 56.3209 25.0351C56.0248 24.8268 55.724 24.6157 55.4718 24.3794C54.7497 24.9202 53.7811 25.3481 52.8834 25.3312C51.8251 25.3116 51.2544 24.6036 50.3913 23.5313C49.786 22.7803 49.0322 21.8452 47.8487 20.8205C46.5671 19.7108 44.883 19.3727 42.842 19.8164C41.2905 20.1536 39.5671 20.9168 37.5747 22.1479C37.4626 22.217 37.3169 22.1824 37.2478 22.0722C37.1786 21.9611 37.2132 21.8153 37.3244 21.7462C39.3644 20.4861 41.1354 19.7034 42.7402 19.354C44.9362 18.8767 46.7596 19.2503 48.1607 20.4628C49.3759 21.5164 50.1447 22.4692 50.7612 23.2352C51.5692 24.2374 52.0568 24.8427 52.8928 24.8586C53.6587 24.8717 54.5134 24.4952 55.1542 24.0254C55.0346 23.8629 54.9431 23.6873 54.8917 23.493C54.7245 22.8578 55.0346 22.2973 55.3513 22.0087C55.6418 21.7444 55.979 21.6453 56.2518 21.7434C56.3919 21.7948 56.6366 21.9461 56.6964 22.3907C56.7552 22.8204 56.5535 23.3071 56.1144 23.7993C56.0322 23.8918 55.9407 23.9843 55.8408 24.0758C56.0584 24.2711 56.3227 24.4569 56.5955 24.6484C57.1849 25.0632 57.7949 25.4919 58.0237 26.1112C58.4188 27.1789 59.1297 27.9542 59.1371 27.9616C59.181 28.0093 59.2035 28.0728 59.1997 28.1372C59.1951 28.2017 59.1652 28.2624 59.1157 28.3035C59.1016 28.3147 58.7719 28.5875 58.2526 28.6472C57.7855 28.7005 57.0663 28.5893 56.2947 27.7561C56.1938 27.6674 55.5204 27.1228 54.7077 27.7991C53.47 28.8313 51.883 29.5262 50.6631 29.5683C49.5095 29.6084 48.4979 30.7256 48.4876 30.7359C48.4783 30.7461 48.468 30.7564 48.4577 30.7648C46.839 32.0408 45.8199 31.3355 45.7769 31.3047C45.7069 31.2543 45.6704 31.1711 45.6807 31.0852C45.69 31.0002 45.7461 30.9274 45.8255 30.8947C46.7063 30.5322 47.0846 29.6448 47.4844 28.707C47.5498 28.5538 47.6152 28.4006 47.6834 28.2475C47.2556 28.1858 46.7857 28.0625 46.2608 27.8654C46.2355 27.9252 46.2085 27.985 46.1804 28.0448C45.5303 29.4356 44.4673 30.6723 43.4398 31.8689C42.4011 33.0786 41.4194 34.22 41.127 35.2765C40.4358 37.7667 42.389 40.2981 43.6145 41.5862C43.692 41.6675 43.7014 41.7917 43.6369 41.8832C43.5911 41.9486 43.5183 41.9851 43.4417 41.9851C43.4109 41.9851 43.3791 41.9795 43.3483 41.9664ZM44.0722 26.7828C42.3675 25.7731 40.7422 25.4461 39.37 25.8375C38.7685 26.0094 38.3341 26.2859 38.0754 26.4876C39.0758 26.8547 39.7791 27.4675 40.1705 28.311C41.0486 30.2072 40.0977 32.6946 39.6484 33.6754C39.0151 35.0569 38.9366 36.3796 39.413 37.6089C40.0183 39.1697 41.4045 40.2794 42.4021 40.9118C41.2447 39.4415 40.0706 37.3053 40.6693 35.1504C40.9897 33.993 42.0051 32.8114 43.0793 31.5607C44.0862 30.3884 45.1277 29.1759 45.7498 27.8449C45.775 27.7916 45.7984 27.7393 45.8208 27.687C45.2931 27.461 44.7139 27.163 44.0722 26.7828ZM50.4408 26.6119C49.801 26.5129 49.2723 26.6987 48.8687 27.1639C48.6997 27.3601 48.5539 27.5824 48.4232 27.8168C49.46 27.7898 50.2101 27.3283 50.9966 26.7632C50.8453 26.7053 50.6538 26.6455 50.4408 26.6119ZM55.6707 22.359C55.4522 22.5579 55.2373 22.9419 55.3504 23.3725C55.383 23.4967 55.4419 23.6135 55.5204 23.7255C55.6082 23.6462 55.6876 23.5649 55.7595 23.4846C56.0986 23.1053 56.2648 22.7392 56.2256 22.4552C56.2144 22.3693 56.1817 22.2217 56.0892 22.189C56.0733 22.1834 56.0547 22.1796 56.0332 22.1796C55.9444 22.1796 55.8109 22.231 55.6707 22.359Z" fill="black"/>
</g>
<mask id="mask1_51_137" style="mask-type:luminance" maskUnits="userSpaceOnUse" x="22" y="19" width="8" height="9">
<path d="M22.2573 19.9733H29.5497V27.2657H22.2573V19.9733Z" fill="white"/>
</mask>
<g mask="url(#mask1_51_137)">
<mask id="mask2_51_137" style="mask-type:luminance" maskUnits="userSpaceOnUse" x="22" y="19" width="8" height="9">
<path d="M25.9031 19.9733C23.8892 19.9733 22.2573 21.606 22.2573 23.6199C22.2573 25.6338 23.8892 27.2657 25.9031 27.2657C27.917 27.2657 29.5497 25.6338 29.5497 23.6199C29.5497 21.606 27.917 19.9733 25.9031 19.9733Z" fill="white"/>
</mask>
<g mask="url(#mask2_51_137)">
<path d="M22.2573 19.9733H29.5497V27.2657H22.2573V19.9733Z" fill="#FFDE59"/>
</g>
</g>
<path d="M73.4585 26.5904C73.6088 26.5904 73.7478 26.6468 73.8755 26.7595C74.0033 26.8647 74.0672 27.0113 74.0672 27.1991C74.0672 27.2517 74.0559 27.3156 74.0334 27.3908L71.7225 34.1541C71.685 34.2668 71.6173 34.3533 71.5196 34.4134C71.422 34.4735 71.3205 34.5073 71.2153 34.5148C71.1101 34.5148 71.0049 34.4848 70.8997 34.4247C70.7945 34.3645 70.7156 34.2744 70.663 34.1541L68.8819 29.9834L68.9834 30.0285L67.2249 34.1541C67.1648 34.2744 67.0821 34.3645 66.9769 34.4247C66.8792 34.4848 66.774 34.5148 66.6613 34.5148C66.5636 34.5073 66.4659 34.4735 66.3682 34.4134C66.2705 34.3533 66.2029 34.2668 66.1653 34.1541L63.8545 27.3908C63.832 27.3156 63.8207 27.2517 63.8207 27.1991C63.8207 27.0113 63.8883 26.8647 64.0236 26.7595C64.1589 26.6468 64.2979 26.5904 64.4407 26.5904C64.5609 26.5904 64.6699 26.6243 64.7676 26.6919C64.8728 26.752 64.9442 26.8422 64.9817 26.9624L66.9318 32.7789H66.7289L68.4423 28.5856C68.4949 28.4729 68.5663 28.3827 68.6565 28.3151C68.7542 28.2475 68.8632 28.2174 68.9834 28.2249C69.1036 28.2174 69.2088 28.2475 69.299 28.3151C69.3967 28.3827 69.4681 28.4729 69.5132 28.5856L71.1364 32.6549L70.9673 32.7451L72.9061 26.9624C72.9437 26.8422 73.0151 26.752 73.1203 26.6919C73.2255 26.6243 73.3382 26.5904 73.4585 26.5904ZM77.7838 28.0897L75.2475 34.1767C75.2024 34.2969 75.1348 34.3908 75.0446 34.4585C74.9544 34.5261 74.853 34.5599 74.7402 34.5599C74.5749 34.5599 74.4509 34.5148 74.3683 34.4247C74.2856 34.327 74.2405 34.2067 74.233 34.0639C74.233 34.0113 74.2443 33.9512 74.2668 33.8836L77.13 26.9624C77.1826 26.8347 77.2577 26.737 77.3554 26.6693C77.4606 26.6017 77.5733 26.5717 77.6936 26.5792C77.8063 26.5792 77.9115 26.613 78.0092 26.6806C78.1069 26.7483 78.1783 26.8422 78.2234 26.9624L81.0527 33.7821C81.0828 33.8573 81.0978 33.9324 81.0978 34.0076C81.0978 34.1729 81.0414 34.3082 80.9287 34.4134C80.8235 34.5111 80.7033 34.5599 80.568 34.5599C80.4553 34.5599 80.3501 34.5261 80.2524 34.4585C80.1622 34.3833 80.0946 34.2894 80.0495 34.1767L77.4907 28.1235L77.7838 28.0897ZM75.6984 32.576L76.2056 31.4939H79.3957L79.5873 32.576H75.6984ZM88.1159 26.6243C88.2662 26.6243 88.3864 26.6769 88.4766 26.7821C88.5743 26.8798 88.6232 27.0038 88.6232 27.1541V33.9399C88.6232 34.1053 88.5668 34.2443 88.4541 34.357C88.3489 34.4622 88.2136 34.5148 88.0483 34.5148C87.9731 34.5148 87.8905 34.4998 87.8003 34.4697C87.7176 34.4397 87.6537 34.3984 87.6087 34.3457L82.9758 28.3376L83.235 28.1911V33.9963C83.235 34.1391 83.1862 34.2631 83.0885 34.3683C82.9908 34.466 82.8668 34.5148 82.7165 34.5148C82.5587 34.5148 82.4309 34.466 82.3332 34.3683C82.2431 34.2631 82.198 34.1391 82.198 33.9963V27.1991C82.198 27.0263 82.2543 26.8873 82.3671 26.7821C82.4798 26.6769 82.6151 26.6243 82.7729 26.6243C82.8555 26.6243 82.9419 26.643 83.0321 26.6806C83.1298 26.7107 83.2012 26.7595 83.2463 26.8272L87.7665 32.7113L87.5974 32.8691V27.1541C87.5974 27.0038 87.6462 26.8798 87.7439 26.7821C87.8416 26.6769 87.9656 26.6243 88.1159 26.6243ZM93.7903 26.6243C94.3389 26.6243 94.8236 26.7295 95.2445 26.9399C95.6653 27.1428 96.0147 27.4283 96.2928 27.7966C96.5783 28.1573 96.7925 28.5781 96.9353 29.0591C97.0781 29.5325 97.1495 30.036 97.1495 30.5695C97.1495 31.2985 97.0217 31.9635 96.7662 32.5647C96.5107 33.1584 96.135 33.6318 95.639 33.985C95.143 34.3382 94.5268 34.5148 93.7903 34.5148H91.0399C90.8821 34.5148 90.7468 34.4622 90.6341 34.357C90.5214 34.2443 90.465 34.1053 90.465 33.9399V27.1991C90.465 27.0338 90.5214 26.8986 90.6341 26.7933C90.7468 26.6806 90.8821 26.6243 91.0399 26.6243H93.7903ZM93.6776 33.4327C94.2112 33.4327 94.6433 33.3012 94.9739 33.0382C95.3046 32.7751 95.5451 32.4295 95.6953 32.0011C95.8532 31.5653 95.9321 31.0881 95.9321 30.5695C95.9321 30.1863 95.887 29.8256 95.7968 29.4874C95.7141 29.1417 95.5789 28.8374 95.391 28.5744C95.2106 28.3038 94.9777 28.0934 94.6921 27.9431C94.4141 27.7853 94.0759 27.7064 93.6776 27.7064H91.5472L91.6486 27.6049V33.5454L91.581 33.4327H93.6776ZM99.1088 26.6243H103.009C103.167 26.6243 103.298 26.6769 103.404 26.7821C103.516 26.8873 103.573 27.0188 103.573 27.1766C103.573 27.3344 103.516 27.4622 103.404 27.5599C103.298 27.6575 103.167 27.7064 103.009 27.7064H99.6048L99.7175 27.5148V30.0398L99.6161 29.927H102.502C102.66 29.927 102.791 29.9796 102.896 30.0848C103.009 30.19 103.065 30.3253 103.065 30.4906C103.065 30.6485 103.009 30.7762 102.896 30.8739C102.791 30.9716 102.66 31.0204 102.502 31.0204H99.6386L99.7175 30.919V33.5229L99.6386 33.4327H103.009C103.167 33.4327 103.298 33.4891 103.404 33.6018C103.516 33.707 103.573 33.831 103.573 33.9738C103.573 34.1316 103.516 34.2631 103.404 34.3683C103.298 34.466 103.167 34.5148 103.009 34.5148H99.1088C98.951 34.5148 98.8157 34.4622 98.703 34.357C98.5903 34.2443 98.5339 34.1053 98.5339 33.9399V27.1991C98.5339 27.0338 98.5903 26.8986 98.703 26.7933C98.8157 26.6806 98.951 26.6243 99.1088 26.6243ZM105.65 34.5148C105.47 34.5148 105.312 34.4622 105.177 34.357C105.041 34.2443 104.974 34.1053 104.974 33.9399V27.1991C104.974 27.0338 105.03 26.8986 105.143 26.7933C105.255 26.6806 105.391 26.6243 105.549 26.6243H108.727C109.133 26.6243 109.505 26.7257 109.843 26.9286C110.181 27.124 110.452 27.3983 110.655 27.7515C110.865 28.0972 110.97 28.4955 110.97 28.9463C110.97 29.2469 110.91 29.5363 110.79 29.8143C110.67 30.0848 110.508 30.3253 110.305 30.5357C110.103 30.7461 109.873 30.904 109.618 31.0092L109.494 30.795C109.727 30.8777 109.93 30.9979 110.103 31.1557C110.275 31.306 110.411 31.4864 110.508 31.6968C110.614 31.8997 110.67 32.1326 110.677 32.3956C110.7 32.6286 110.719 32.824 110.734 32.9818C110.756 33.1321 110.786 33.2561 110.824 33.3538C110.862 33.4515 110.929 33.5266 111.027 33.5792C111.162 33.6544 111.245 33.7671 111.275 33.9174C111.312 34.0677 111.282 34.203 111.185 34.3232C111.117 34.4134 111.031 34.4735 110.925 34.5036C110.828 34.5261 110.726 34.5299 110.621 34.5148C110.516 34.4923 110.426 34.4622 110.35 34.4247C110.23 34.3495 110.106 34.2443 109.979 34.109C109.858 33.9662 109.761 33.7709 109.685 33.5229C109.61 33.2749 109.573 32.948 109.573 32.5422C109.573 32.3543 109.543 32.1927 109.483 32.0575C109.422 31.9222 109.34 31.8133 109.235 31.7306C109.129 31.6404 109.005 31.5765 108.863 31.539C108.72 31.4939 108.562 31.4713 108.389 31.4713H105.999L106.157 31.2459V33.9399C106.157 34.1053 106.112 34.2443 106.022 34.357C105.932 34.4622 105.808 34.5148 105.65 34.5148ZM106.011 30.4906H108.705C108.878 30.4831 109.043 30.4155 109.201 30.2877C109.366 30.1525 109.498 29.9721 109.595 29.7467C109.7 29.5212 109.753 29.2657 109.753 28.9802C109.753 28.6194 109.644 28.3189 109.426 28.0784C109.216 27.8304 108.964 27.7064 108.671 27.7064H106.033L106.157 27.4133V30.7274L106.011 30.4906ZM119.728 30.5695C119.728 31.1407 119.634 31.6742 119.446 32.1702C119.258 32.6587 118.991 33.087 118.646 33.4552C118.308 33.8235 117.906 34.1128 117.44 34.3232C116.974 34.5261 116.463 34.6276 115.907 34.6276C115.358 34.6276 114.851 34.5261 114.385 34.3232C113.919 34.1128 113.513 33.8235 113.167 33.4552C112.829 33.087 112.566 32.6587 112.378 32.1702C112.198 31.6742 112.108 31.1407 112.108 30.5695C112.108 29.9984 112.198 29.4686 112.378 28.9802C112.566 28.4842 112.829 28.0521 113.167 27.6839C113.513 27.3156 113.919 27.0301 114.385 26.8272C114.851 26.6167 115.358 26.5115 115.907 26.5115C116.463 26.5115 116.974 26.6167 117.44 26.8272C117.906 27.0301 118.308 27.3156 118.646 27.6839C118.991 28.0521 119.258 28.4842 119.446 28.9802C119.634 29.4686 119.728 29.9984 119.728 30.5695ZM118.51 30.5695C118.51 30.0134 118.398 29.5137 118.172 29.0703C117.954 28.627 117.65 28.2775 117.259 28.022C116.868 27.7665 116.418 27.6388 115.907 27.6388C115.403 27.6388 114.956 27.7665 114.565 28.022C114.174 28.2775 113.87 28.627 113.652 29.0703C113.434 29.5062 113.325 30.0059 113.325 30.5695C113.325 31.1256 113.434 31.6254 113.652 32.0688C113.87 32.5121 114.174 32.8616 114.565 33.1171C114.956 33.3726 115.403 33.5003 115.907 33.5003C116.418 33.5003 116.868 33.3726 117.259 33.1171C117.65 32.8616 117.954 32.5121 118.172 32.0688C118.398 31.6254 118.51 31.1256 118.51 30.5695ZM128.303 30.5695C128.303 31.1407 128.209 31.6742 128.021 32.1702C127.833 32.6587 127.567 33.087 127.221 33.4552C126.883 33.8235 126.481 34.1128 126.015 34.3232C125.549 34.5261 125.038 34.6276 124.482 34.6276C123.933 34.6276 123.426 34.5261 122.96 34.3232C122.494 34.1128 122.088 33.8235 121.743 33.4552C121.405 33.087 121.141 32.6587 120.954 32.1702C120.773 31.6742 120.683 31.1407 120.683 30.5695C120.683 29.9984 120.773 29.4686 120.954 28.9802C121.141 28.4842 121.405 28.0521 121.743 27.6839C122.088 27.3156 122.494 27.0301 122.96 26.8272C123.426 26.6167 123.933 26.5115 124.482 26.5115C125.038 26.5115 125.549 26.6167 126.015 26.8272C126.481 27.0301 126.883 27.3156 127.221 27.6839C127.567 28.0521 127.833 28.4842 128.021 28.9802C128.209 29.4686 128.303 29.9984 128.303 30.5695ZM127.086 30.5695C127.086 30.0134 126.973 29.5137 126.748 29.0703C126.53 28.627 126.225 28.2775 125.835 28.022C125.444 27.7665 124.993 27.6388 124.482 27.6388C123.978 27.6388 123.531 27.7665 123.14 28.022C122.75 28.2775 122.445 28.627 122.227 29.0703C122.009 29.5062 121.9 30.0059 121.9 30.5695C121.9 31.1256 122.009 31.6254 122.227 32.0688C122.445 32.5121 122.75 32.8616 123.14 33.1171C123.531 33.3726 123.978 33.5003 124.482 33.5003C124.993 33.5003 125.444 33.3726 125.835 33.1171C126.225 32.8616 126.53 32.5121 126.748 32.0688C126.973 31.6254 127.086 31.1256 127.086 30.5695Z" fill="black"/>
</svg>
